<?xml version="1.0" encoding="utf-8"?>
<!-- Generator: Adobe Illustrator 25.4.1, SVG Export Plug-In . SVG Version: 6.00 Build 0)  -->
<svg version="1.1" id="Calque_1" xmlns="http://www.w3.org/2000/svg" xmlns:xlink="http://www.w3.org/1999/xlink" x="0px" y="0px"
	 viewBox="0 0 800 800" style="enable-background:new 0 0 800 800;" xml:space="preserve">
<style type="text/css">
	.st0{enable-background:new    ;}
	.st1{fill:#D8BC16;}
</style>
<g class="st0">
	<path class="st1" d="M504.7,419.6c0,6.5-1.7,11.5-5.2,15.2c-3.5,3.6-7.7,5.5-12.8,5.5c-5.2,0-9.5-1.9-12.9-5.5
		c-3.4-3.7-5.1-8.7-5.1-15.1c0-6.5,1.7-11.5,5.1-15.1c3.4-3.6,7.7-5.4,12.9-5.4c5,0,9.3,1.8,12.8,5.5
		C503,408.2,504.7,413.2,504.7,419.6z"/>
	<path class="st1" d="M733.3,258.7c-0.2-48.6-19.3-67.7-68.2-67.8c-176.8-0.3-353.7-0.3-530.5,0c-48.8,0.1-67.8,19.2-68,68
		c-0.4,94.2-0.4,188.4,0,282.7c0.2,48.7,19.3,67.7,68.2,67.9c87.8,0.4,175.5,0.1,263.3,0.1c89.1,0,178.1,0.3,267.2-0.1
		c48.8-0.2,67.8-19.2,68-68.1C733.7,447.2,733.7,353,733.3,258.7z M299.8,435.4c2.5,3.6,6,5.5,10.3,5.5c6.2,0,10.3-3.2,12.3-9.7
		h36.7c-2.5,12.2-8,21.8-16.6,28.7c-8.6,6.9-19.1,10.4-31.7,10.4c-9.8,0-18.4-2.1-26-6.2c-7.6-4.1-13.5-10-17.7-17.6
		c-4.2-7.6-6.3-16.6-6.3-27c0-10.2,2.1-19.1,6.3-26.8c4.2-7.6,10.1-13.5,17.7-17.6c7.6-4.1,16.2-6.2,26-6.2
		c12.6,0,23.1,3.4,31.7,10.3c8.6,6.9,14.1,16.5,16.6,28.8h-36.7c-2.1-6.5-6.2-9.7-12.3-9.7c-4.4,0-7.8,1.8-10.3,5.4
		c-2.5,3.6-3.8,8.8-3.8,15.8C296,426.5,297.3,431.8,299.8,435.4z M426.8,398.9h-15.5v70.1h-34.7v-70.1h-10.8v-28.7h10.8v-0.9
		c0-12.7,3.7-22.4,11.2-29.2c7.5-6.8,18.2-10.1,32.2-10.1c2.8,0,5,0.1,6.5,0.2v29.4c-0.9-0.1-2.2-0.2-3.9-0.2
		c-3.8,0-6.5,0.8-8.3,2.5c-1.8,1.7-2.8,4.4-3,8.2h15.5V398.9z M539.2,469.1h-34.5v-13.8c-2.7,4.6-6.6,8.2-11.5,10.9
		c-5,2.7-10.8,4-17.5,4c-7.9,0-15-2.1-21.4-6.2c-6.4-4.1-11.5-10-15.2-17.7c-3.7-7.7-5.5-16.6-5.5-26.9s1.9-19.1,5.5-26.8
		c3.7-7.6,8.8-13.5,15.2-17.6c6.4-4.1,13.6-6.2,21.4-6.2c6.8,0,12.7,1.4,17.6,4.1c4.9,2.7,8.8,6.3,11.5,10.9v-13.7h34.5V469.1z"/>
	<path class="st1" d="M388.4,643.7c-52.4,27.7-94.6,51.8-138.4,72.4c-29.8,14-55.5,4.1-72.5-24.6c-8.4-14.3-15.5-29.3-25.1-47.8
		C229.1,643.7,302.6,643.7,388.4,643.7z"/>
	<path class="st1" d="M648.4,158.1c-79.2,0-151.9,0-224.7,0c-0.8-2.1-1.6-4.1-2.5-6.2c44.7-23.4,88.7-48.4,134.4-69.5
		c24.9-11.5,48.5-2,63.5,21.5C629.4,119.9,637.2,137.3,648.4,158.1z"/>
</g>
</svg>
