<?xml version="1.0" encoding="utf-8"?>
<!-- Generator: Adobe Illustrator 25.4.1, SVG Export Plug-In . SVG Version: 6.00 Build 0)  -->
<svg version="1.1" id="Calque_1" xmlns="http://www.w3.org/2000/svg" xmlns:xlink="http://www.w3.org/1999/xlink" x="0px" y="0px"
	 viewBox="0 0 800 800" style="enable-background:new 0 0 800 800;" xml:space="preserve">
<style type="text/css">
	.st0{enable-background:new    ;}
	.st1{opacity:0.5;fill:#1C274C;enable-background:new    ;}
	.st2{fill:#D11400;}
</style>
<g class="st0">
	<path class="st1" d="M400,744.1L400,744.1c-40.4,0-73.1-32.7-73.1-73.1V129c0-40.4,32.7-73.1,73.1-73.1l0,0
		c40.4,0,73.1,32.7,73.1,73.1v542C473.1,711.4,440.4,744.1,400,744.1z"/>
	<path class="st1" d="M196,605.6L196,605.6c-40.4,0-73.1-32.7-73.1-73.1v-265c0-40.4,32.7-73.1,73.1-73.1l0,0
		c40.4,0,73.1,32.7,73.1,73.1v265C269.1,572.9,236.4,605.6,196,605.6z"/>
	<path class="st1" d="M604,665.4L604,665.4c-40.4,0-73.1-32.7-73.1-73.1V380.1c0-40.4,32.7-73.1,73.1-73.1l0,0
		c40.4,0,73.1,32.7,73.1,73.1v212.2C677.2,632.7,644.4,665.4,604,665.4z"/>
	<circle class="st2" cx="604" cy="202.3" r="73"/>
</g>
</svg>
