<?xml version="1.0" encoding="utf-8"?>
<!-- Generator: Adobe Illustrator 25.4.1, SVG Export Plug-In . SVG Version: 6.00 Build 0)  -->
<svg version="1.1" id="Calque_1" xmlns="http://www.w3.org/2000/svg" xmlns:xlink="http://www.w3.org/1999/xlink" x="0px" y="0px"
	 viewBox="0 0 800 800" style="enable-background:new 0 0 800 800;" xml:space="preserve">
<style type="text/css">
	.st0{opacity:0.5;fill:#1C274C;enable-background:new    ;}
	.st1{fill:#1C274C;}
</style>
<path class="st0" d="M611.2,300.9c-3.2,10.4-13,30-21.8,47.7l-14.9,29.8c-14.2,28.4-22.8,45.5-31,50.6c-8.3,5.1-27.4,5.1-59.2,5.1
	H365.8c-32.4,0-52,0-60-4.7c-3.4-2-6.4-4.5-8.9-7.6c-6-7.1-9.2-26.4-14.5-58.4c-4.1-24.5-8.3-49.9-5.5-55.1c1.2-2.2,2.8-4.1,4.8-5.6
	c4.5-3.5,28-3.6,51.6-3.6h225.5C578.6,299.1,600.6,299.1,611.2,300.9z"/>
<g>
	<path class="st1" d="M668.7,265.4c-14.6-23.7-40.9-27.6-49.5-28.9c-15.7-2.3-34.4-2.3-60.4-2.3H333.3c-11.1,0-17.8,0-20.9-0.6
		c-10.9-2-20.1-9.3-24.7-19.3c-1.3-2.9-3-9.4-5.6-20.2l-6.1-24.2c-5.4-21.5-8.9-35.6-20.4-48.1c-4.8-5.1-10.3-9.4-16.4-12.8
		c-14.8-8.2-29.5-8.2-51.6-8.2h-54.2c-18,0-32.5,14.5-32.5,32.5c0,17.9,14.5,32.5,32.5,32.5h54.2c8,0,16.2,0,20.1,0.4
		c1.4,3.6,3.4,11.6,5.3,19.4l6.1,24.2c3.7,14.9,5.8,23.2,9.7,31.6c2.3,5,5,9.8,8.1,14.3c-6.9,6.3-12.7,13.7-17.1,22
		c-13.2,24.8-8.7,51.7-1.3,96.4c5.3,32.1,9,53.8,17.2,71.2c-20.2,10.5-36.4,27.8-45.6,49.8c-1.4,3.4-2.5,6.5-4.4,12.3
		c-1.8,5.5-2.9,8.6-3.6,12.2c-3.9,18.1,0.1,37.2,11,52.2c10.8,15,27.6,24.9,46.1,26.9c3.7,0.4,6.9,0.4,12.8,0.4h348
		c18,0,32.5-14.5,32.5-32.5S618,534.2,600,534.2H246c-0.1,0-0.3-0.1-0.4-0.3c-0.1-0.2-0.2-0.4-0.2-0.5c0.3-1,1-3.2,1.8-5.4
		c1.4-4.1,2.2-6.6,2.7-7.7c5-12,16.1-20,29-20.9c1.3-0.1,3.9-0.1,8.2-0.1h197.2c43.3,0,69.4,0,93.3-14.8c24-14.8,35.6-38.2,55-76.9
		l14.9-29.8c11.6-23.2,20-40,24.9-55C675.1,314.3,683.4,289.1,668.7,265.4z M574.5,378.4c-14.2,28.4-22.8,45.5-31,50.6
		c-8.3,5.1-27.4,5.1-59.2,5.1H365.8c-32.4,0-52,0-60-4.7c-3.4-2-6.4-4.5-8.9-7.6c-6-7.1-9.2-26.4-14.5-58.4
		c-4.1-24.5-8.3-49.9-5.5-55.1c1.2-2.2,2.8-4.1,4.8-5.6c4.5-3.5,28-3.6,51.6-3.6h225.5c19.8,0,41.8,0,52.4,1.8
		c-3.2,10.4-13,30-21.8,47.7L574.5,378.4z"/>
</g>
<circle class="st0" cx="566.7" cy="666.7" r="33.3"/>
<circle class="st0" cx="300" cy="666.7" r="33.3"/>
</svg>
