<?xml version="1.0" encoding="utf-8"?>
<!-- Generator: Adobe Illustrator 25.4.1, SVG Export Plug-In . SVG Version: 6.00 Build 0)  -->
<svg version="1.1" id="Calque_1" xmlns="http://www.w3.org/2000/svg" xmlns:xlink="http://www.w3.org/1999/xlink" x="0px" y="0px"
	 viewBox="0 0 800 800" style="enable-background:new 0 0 800 800;" xml:space="preserve">
<style type="text/css">
	.st0{fill:#1C274C;}
	.st1{fill:#9ABBF4;}
</style>
<path class="st0" d="M66.7,432.3V233c0-92,74.7-166.3,166.7-166.3h333.3c92,0,166.7,74.3,166.7,166.3v232.7
	c0,91.7-74.7,166-166.7,166h-50c-10.3,0-20.3,5-26.7,13.3l-50,66.3c-22,29.3-58,29.3-80,0L310,645c-5.3-7.3-17.3-13.3-26.7-13.3h-50
	c-92,0-166.7-74.3-166.7-166v-33.4H66.7z"/>
<path class="st1" d="M399.5,432.8c-18.7,0-33.3-15-33.3-33.3s15-33.3,33.3-33.3s33.3,15,33.3,33.3S418.2,432.8,399.5,432.8z"/>
<path class="st1" d="M532.8,432.8c-18.7,0-33.3-15-33.3-33.3s15-33.3,33.3-33.3s33.3,15,33.3,33.3S551.5,432.8,532.8,432.8z"/>
<path class="st1" d="M266.2,432.8c-18.7,0-33.3-15-33.3-33.3s15-33.3,33.3-33.3s33.3,15,33.3,33.3S284.8,432.8,266.2,432.8z"/>
</svg>
