<?xml version="1.0" encoding="utf-8"?>
<!-- Generator: Adobe Illustrator 25.4.1, SVG Export Plug-In . SVG Version: 6.00 Build 0)  -->
<svg version="1.1" id="_24x24_On_Light_Notification-Off"
	 xmlns="http://www.w3.org/2000/svg" xmlns:xlink="http://www.w3.org/1999/xlink" x="0px" y="0px" viewBox="0 0 800 800"
	 style="enable-background:new 0 0 800 800;" xml:space="preserve">
<style type="text/css">
	.st0{fill:none;}
	.st1{fill:#1C274C;}
	.st2{opacity:0.5;fill:#1C274C;enable-background:new    ;}
</style>
<rect id="view-box" class="st0" width="800" height="800"/>
<path class="st1" d="M644.3,460.9c-12.9-6.5-21.5-19.2-22.9-33.5l-14.9-163.7c-9-99.9-88.2-179.1-188.1-188.1
	c-114.1-10.3-215,74-225.2,188.1l-14.9,163.7c-1.3,14.4-9.9,27.1-22.8,33.6c-29,14.3-47.3,43.9-47.2,76.3V550
	c0.1,41.4,33.6,74.9,75,75h433.2c41.4,0,75-33.6,75-75v-12.7C691.6,504.9,673.3,475.2,644.3,460.9z M616.7,575H183.3
	c-13.8,0-25-11.2-25-25v-12.7c0-13.4,7.6-25.7,19.6-31.6c28.5-14.1,47.6-42.1,50.4-73.7l14.8-163.6c6.9-75.7,66.9-135.7,142.5-142.5
	c86.6-7.9,163.2,55.9,171.2,142.5L571.6,432c2.8,31.7,21.9,59.6,50.5,73.7c12,5.9,19.6,18.2,19.5,31.6l0.1,12.7
	C641.7,563.8,630.5,575,616.7,575z"/>
<path class="st2" d="M641.7,550c0,13.8-11.2,25-25,25H183.3c-13.8,0-25-11.2-25-25v-12.7c0-13.4,7.6-25.7,19.6-31.6
	c28.5-14.1,47.6-42.1,50.4-73.7l14.8-163.6c6.9-75.7,66.9-135.7,142.5-142.5c86.6-7.9,163.2,55.9,171.2,142.5L571.6,432
	c2.8,31.7,21.9,59.6,50.5,73.7c12,5.9,19.6,18.2,19.5,31.6L641.7,550z"/>
<path class="st2" d="M491.7,625v16.7c0,50.6-41,91.7-91.7,91.7c-50.6,0-91.7-41-91.7-91.7V625h50v16.7c0,23,18.7,41.7,41.7,41.7
	s41.7-18.7,41.7-41.7V625H491.7z"/>
</svg>
