<?xml version="1.0" encoding="utf-8"?>
<!-- Generator: Adobe Illustrator 25.4.1, SVG Export Plug-In . SVG Version: 6.00 Build 0)  -->
<svg version="1.1" id="Calque_1" xmlns="http://www.w3.org/2000/svg" xmlns:xlink="http://www.w3.org/1999/xlink" x="0px" y="0px"
	 viewBox="0 0 800 800" style="enable-background:new 0 0 800 800;" xml:space="preserve">
<style type="text/css">
	.st0{opacity:0.5;fill-rule:evenodd;clip-rule:evenodd;fill:#1C274C;enable-background:new    ;}
</style>
<path class="st0" d="M400,133.3c-51.6,0-97.3,33.4-113,82.7l-26.7,84h23h233.3h23L513,216C497.3,166.8,451.6,133.3,400,133.3z
	 M609.6,300l-33.1-104.2C552.1,118.9,480.7,66.7,400,66.7c-80.7,0-152.1,52.2-176.5,129.1L190.4,300h-78.8
	c-44.7,0-76.8,43.2-63.8,86l37.5,123.7l46.3,152.7c12.8,42.2,51.6,71,95.7,71h106.1h133.3h106.1c44.1,0,82.9-28.8,95.7-71
	l46.3-152.7L752.2,386c13-42.8-19.1-86-63.8-86H609.6z M214.8,366.7H111.6l30.3,100h126l-13.6-100H214.8z M321.5,366.7l13.6,100
	h129.7l13.6-100H321.5z M545.8,366.7l-13.6,100h126l30.3-100H585.2H545.8z M637.9,533.3H523l-18.2,133.3h67.9
	c14.7,0,27.6-9.6,31.9-23.7L637.9,533.3z M437.6,666.7l18.2-133.3H344.2l18.2,133.3H437.6z M295.1,666.7L277,533.3H162.1L195.3,643
	c4.3,14.1,17.2,23.7,31.9,23.7H295.1z"/>
</svg>
