<?xml version="1.0" encoding="utf-8"?>
<!-- Generator: Adobe Illustrator 25.4.1, SVG Export Plug-In . SVG Version: 6.00 Build 0)  -->
<svg version="1.1" id="Calque_1" xmlns="http://www.w3.org/2000/svg" xmlns:xlink="http://www.w3.org/1999/xlink" x="0px" y="0px"
	 viewBox="0 0 800 800" style="enable-background:new 0 0 800 800;" xml:space="preserve">
<style type="text/css">
	.st0{fill:none;stroke:#1C274C;stroke-width:50;stroke-miterlimit:133.3333;}
	.st1{opacity:0.5;fill:none;stroke:#1C274C;stroke-width:50;stroke-miterlimit:133.3333;enable-background:new    ;}
</style>
<path class="st0" d="M400,500c55.2,0,100-44.8,100-100s-44.8-100-100-100s-100,44.8-100,100S344.8,500,400,500z"/>
<path class="st1" d="M66.7,429.3v-58.7c0-34.7,28.3-63.3,63.3-63.3c60.3,0,85-42.7,54.7-95c-17.3-30-7-69,23.3-86.3l57.7-33
	c26.3-15.7,60.3-6.3,76,20l3.7,6.3c30,52.3,79.3,52.3,109.7,0l3.7-6.3c15.7-26.3,49.7-35.7,76-20l57.7,33
	c30.3,17.3,40.7,56.3,23.3,86.3c-30.3,52.3-5.7,95,54.7,95c34.7,0,63.3,28.3,63.3,63.3v58.7c0,34.7-28.3,63.3-63.3,63.3
	c-60.3,0-85,42.7-54.7,95c17.3,30.3,7,69-23.3,86.3l-57.7,33c-26.3,15.7-60.3,6.3-76-20l-3.7-6.3c-30-52.3-79.3-52.3-109.7,0
	l-3.7,6.3c-15.7,26.3-49.7,35.7-76,20L208,674c-30.3-17.3-40.7-56.3-23.3-86.3c30.3-52.3,5.7-95-54.7-95
	C95,492.7,66.7,464,66.7,429.3z"/>
</svg>
