<?xml version="1.0" encoding="utf-8"?>
<!-- Generator: Adobe Illustrator 25.4.1, SVG Export Plug-In . SVG Version: 6.00 Build 0)  -->
<svg version="1.1" id="Calque_1" xmlns="http://www.w3.org/2000/svg" xmlns:xlink="http://www.w3.org/1999/xlink" x="0px" y="0px"
	 viewBox="0 0 800 800" style="enable-background:new 0 0 800 800;" xml:space="preserve">
<style type="text/css">
	.st0{fill:#1C274C;stroke:#1C274C;stroke-width:50;stroke-miterlimit:10;}
	.st1{opacity:0.5;fill:#1C274C;stroke:#1C274C;stroke-width:50;stroke-miterlimit:10;enable-background:new    ;}
	.st2{fill:none;stroke:#566B99;stroke-width:50;stroke-linecap:round;stroke-miterlimit:133.3333;enable-background:new    ;}
</style>
<path class="st0" d="M273.3,700h253.3c37.3,0,56,0,70.3-7.3c12.5-6.4,22.7-16.6,29.1-29.1c7.3-14.3,7.3-32.9,7.3-70.3V306.7
	c0-37.3,0-56-7.3-70.3c-6.4-12.5-16.6-22.7-29.1-29.1c-14.3-7.3-32.9-7.3-70.3-7.3H273.3c-37.3,0-56,0-70.3,7.3
	c-12.5,6.4-22.7,16.6-29.1,29.1c-7.3,14.3-7.3,32.9-7.3,70.3v286.7c0,37.3,0,56,7.3,70.3c6.4,12.5,16.6,22.7,29.1,29.1
	C217.3,700,236,700,273.3,700z"/>
<path class="st1" d="M533.3,200v-57.2c0-25.6,0-38.4-5.4-46.7c-4.7-7.2-12-12.4-20.5-14.3c-9.6-2.2-21.7,2.2-45.7,10.9l-242.4,88.2
	c-19,6.9-28.5,10.3-35.5,16.4c-6.2,5.4-10.9,12.2-13.9,19.8c-3.3,8.7-3.3,18.7-3.3,38.9v144"/>
<line class="st2" x1="300" y1="566.7" x2="500" y2="566.7"/>
<line class="st2" x1="300" y1="450" x2="500" y2="450"/>
<line class="st2" x1="300" y1="333.3" x2="500" y2="333.3"/>
</svg>
