<?xml version="1.0" encoding="utf-8"?>
<!-- Generator: Adobe Illustrator 24.1.0, SVG Export Plug-In . SVG Version: 6.00 Build 0)  -->
<svg version="1.2" baseProfile="tiny" id="Calque_1"
	 xmlns="http://www.w3.org/2000/svg" xmlns:xlink="http://www.w3.org/1999/xlink" x="0px" y="0px" viewBox="0 0 100 100"
	 xml:space="preserve">
<g>
	<path fill="#94C11F" d="M49.94,81.23c-10.46,0-20.93,0.01-31.39,0c-3.99,0-7.11-2.51-7.97-6.37c-0.12-0.53-0.15-1.09-0.15-1.64
		c-0.01-12.5-0.02-25.01,0-37.51c0-4.36,3.44-7.83,7.8-7.88c3.21-0.04,6.42-0.04,9.64,0.01c0.94,0.02,1.32-0.19,1.56-1.21
		c1.03-4.56,5.03-7.78,9.72-7.82c7.25-0.06,14.51-0.06,21.76,0c4.83,0.04,8.89,3.5,9.79,8.25c0.14,0.73,0.5,0.77,1.06,0.77
		c3.21-0.01,6.42-0.01,9.64,0c4.83,0.01,8.2,3.38,8.2,8.22c0,12.33,0.01,24.66,0,36.99c0,4.81-3.4,8.19-8.24,8.2
		C70.87,81.24,60.41,81.23,49.94,81.23z M49.98,74.82c11.28-0.03,20.34-9.12,20.33-20.37c-0.01-11.18-9.13-20.25-20.34-20.23
		c-11.26,0.02-20.3,9.12-20.28,20.4C29.71,65.71,38.89,74.85,49.98,74.82z M76.79,34.22C76.79,34.22,76.79,34.22,76.79,34.22
		c-1.48,0.01-2.97-0.02-4.45,0.01c-1.09,0.02-1.74,0.63-1.8,1.73c-0.05,0.96-0.05,1.94,0,2.9c0.06,1.12,0.74,1.81,1.86,1.82
		c2.93,0.03,5.87,0.03,8.8,0c1.14-0.01,1.77-0.66,1.83-1.81c0.05-0.93,0.05-1.86,0.02-2.79c-0.05-1.23-0.67-1.82-1.89-1.85
		C79.69,34.2,78.24,34.22,76.79,34.22z"/>
	<path fill="#94C11F" d="M49.99,41.09c7.26-0.03,13.3,6.03,13.38,13.41c0.07,7.29-5.99,13.44-13.31,13.48
		c-7.25,0.04-13.42-6.16-13.45-13.51C36.58,47.15,42.62,41.11,49.99,41.09z"/>
</g>
</svg>
