<svg id="Calque_1" data-name="Calque 1" xmlns="http://www.w3.org/2000/svg" viewBox="0 0 283.46 283.46"><path d="M271.21,122.21q0-17.67-7.67-31.63A65.57,65.57,0,0,0,246.1,70.45Q213.79,45.12,181.32,20A69,69,0,0,0,166,11a61.51,61.51,0,0,0-48.49,0,69.37,69.37,0,0,0-15.79,9.35q-32,25-64,49.91Q23,81.66,16.78,97.26a66.19,66.19,0,0,0-4.5,24.55q-.09,45.9,0,91.81a65.86,65.86,0,0,0,4.51,24.12A62,62,0,0,0,39.16,266.1a64.61,64.61,0,0,0,37,11.39h65.35c22,0,44,0,66,0A63.51,63.51,0,0,0,219,276.5a66.24,66.24,0,0,0,25.29-10.4,61.08,61.08,0,0,0,19.3-21.5,65.53,65.53,0,0,0,7.67-31.2Q271.26,167.8,271.21,122.21Zm-19.92,90.94c0,25.63-18.79,44.41-44.38,44.41H76.51c-25.43,0-44.3-18.79-44.32-44.15q0-45.75,0-91.51,0-22.17,17.49-35.77l64.55-50.29c16.92-13.18,37.88-13.3,54.83-.16,21.56,16.7,43,33.52,64.57,50.26,11.85,9.22,17.71,21.29,17.69,36.32C251.26,152.56,251.31,182.85,251.29,213.15Z" style="fill:#232323"/><path d="M241.17,124.06c0-13.64-5.3-24.59-16-33-19.54-15.19-39-30.45-58.6-45.6-15.38-11.93-34.4-11.82-49.75.14L58.19,91.28q-15.87,12.35-15.87,32.45,0,41.52,0,83c0,23,17.14,40.07,40.22,40.07H200.88c23.22,0,40.25-17.05,40.27-40.3C241.17,179,241.12,151.56,241.17,124.06Zm-61.33,99.05q-19,0-38.09,0t-38.09,0c-6,0-10-3.65-10-9s4-9,10-9h76.2c6,0,10,3.65,10,9S185.86,223.1,179.84,223.11Z" style="fill:#232323"/></svg>