<?xml version="1.0" encoding="utf-8"?>
<!-- Generator: Adobe Illustrator 25.4.1, SVG Export Plug-In . SVG Version: 6.00 Build 0)  -->
<!DOCTYPE svg PUBLIC "-//W3C//DTD SVG 1.1//EN" "http://www.w3.org/Graphics/SVG/1.1/DTD/svg11.dtd" [
	<!ENTITY ns_extend "http://ns.adobe.com/Extensibility/1.0/">
	<!ENTITY ns_ai "http://ns.adobe.com/AdobeIllustrator/10.0/">
	<!ENTITY ns_graphs "http://ns.adobe.com/Graphs/1.0/">
	<!ENTITY ns_vars "http://ns.adobe.com/Variables/1.0/">
	<!ENTITY ns_imrep "http://ns.adobe.com/ImageReplacement/1.0/">
	<!ENTITY ns_sfw "http://ns.adobe.com/SaveForWeb/1.0/">
	<!ENTITY ns_custom "http://ns.adobe.com/GenericCustomNamespace/1.0/">
	<!ENTITY ns_adobe_xpath "http://ns.adobe.com/XPath/1.0/">
]>
<svg version="1.1" id="Calque_1" xmlns:x="&ns_extend;" xmlns:i="&ns_ai;" xmlns:graph="&ns_graphs;"
	 xmlns="http://www.w3.org/2000/svg" xmlns:xlink="http://www.w3.org/1999/xlink" x="0px" y="0px" viewBox="0 0 283.5 283.5"
	 style="enable-background:new 0 0 283.5 283.5;" xml:space="preserve">
<style type="text/css">
	.st0{fill:#303030;}
</style>
<metadata>
	<sfw  xmlns="&ns_sfw;">
		<slices></slices>
		<sliceSourceBounds  bottomLeftOrigin="true" height="271.5" width="259" x="12.3" y="6"></sliceSourceBounds>
	</sfw>
</metadata>
<path class="st0" d="M271.2,122.2c0-21.3-8.4-38.6-25.1-51.8C224.6,53.6,203,36.7,181.3,20C157,1.1,125.9,1.4,101.7,20.3
	C80.4,37,59.1,53.6,37.7,70.2c-16.8,13.1-25.4,30.3-25.4,51.6c-0.1,30.6-0.1,61.2,0,91.8c0.1,36.1,27.9,63.8,63.9,63.9
	c21.8,0,43.6,0,65.3,0c22,0,44,0,66,0c3.8,0,7.7-0.3,11.4-1c31.2-5.9,52.2-31.3,52.3-63.1C271.3,183,271.2,152.6,271.2,122.2z
	 M251.3,213.2c0,25.6-18.8,44.4-44.4,44.4H76.5c-25.4,0-44.3-18.8-44.3-44.1c0-30.5,0-61,0-91.5c0-14.8,5.8-26.7,17.5-35.8
	c21.5-16.8,43-33.6,64.5-50.3c16.9-13.2,37.9-13.3,54.8-0.2c21.6,16.7,43,33.5,64.6,50.3c11.9,9.2,17.7,21.3,17.7,36.3
	C251.3,152.6,251.3,182.9,251.3,213.2L251.3,213.2z"/>
<path class="st0" d="M183.7,211.5c-28,0-56,0-84,0c-6.7,0-11,4-11,10s4.4,9.9,11.1,9.9c14,0,28,0,42,0s28,0,42,0
	c6.6,0,11.1-4,11.1-10S190.3,211.5,183.7,211.5z"/>
</svg>
