<?xml version="1.0" encoding="utf-8"?>
<!-- Generator: Adobe Illustrator 25.4.1, SVG Export Plug-In . SVG Version: 6.00 Build 0)  -->
<svg version="1.1" id="Calque_1" xmlns="http://www.w3.org/2000/svg" xmlns:xlink="http://www.w3.org/1999/xlink" x="0px" y="0px"
	 viewBox="0 0 800 800" style="enable-background:new 0 0 800 800;" xml:space="preserve">
<style type="text/css">
	.st0{fill:#F29100;}
	.st1{fill:#662482;}
	.st2{fill:#1D70B7;}
</style>
<g>
	<path class="st0" d="M400,773L400,773c-43.8,0-79.3-35.5-79.3-79.3V106.3c0-43.8,35.5-79.3,79.3-79.3h0c43.8,0,79.3,35.5,79.3,79.3
		v587.5C479.3,737.5,443.8,773,400,773z"/>
	<path class="st1" d="M178.9,622.9L178.9,622.9c-43.8,0-79.3-35.5-79.3-79.3V256.4c0-43.8,35.5-79.3,79.3-79.3h0
		c43.8,0,79.3,35.5,79.3,79.3v287.2C258.1,587.4,222.6,622.9,178.9,622.9z"/>
	<path class="st2" d="M621.1,687.7L621.1,687.7c-43.8,0-79.3-35.5-79.3-79.3v-230c0-43.8,35.5-79.3,79.3-79.3h0
		c43.8,0,79.3,35.5,79.3,79.3v230C700.4,652.2,664.9,687.7,621.1,687.7z"/>
	<circle class="st0" cx="621.1" cy="185.7" r="79.2"/>
</g>
</svg>
