<svg id="Calque_1" data-name="Calque 1" xmlns="http://www.w3.org/2000/svg" viewBox="0 0 283.46 283.46"><path d="M243.11,90.26c-6.64-40.08-38.4-74.08-78.06-83-5.37-1.2-10.87-1.83-16.31-2.73H134.81c-3.52.52-7,1-10.55,1.57C70.53,15.38,31.1,66.65,40.2,125.18c3.23,20.81,10.92,40,21,58.31,19.2,34.71,44.46,64.6,73.21,91.69,5.31,5,9.32,5,14.66,0a413,413,0,0,0,42.32-45.79c17.32-21.83,32.48-45,42.73-71C242.79,136.43,247,113.93,243.11,90.26Zm-99.63,74.29C112.62,166,86.07,141,84.64,109.25c-1.4-31.08,23.5-57.59,55.42-59C171,48.91,197.39,73.7,198.9,105.56,200.38,136.57,175.48,163.07,143.48,164.55Z" style="fill:#565656"/></svg>