<svg id="Calque_1" data-name="Calque 1" xmlns="http://www.w3.org/2000/svg" viewBox="0 0 283.46 283.46"><path d="M279.87,75.54a64.73,64.73,0,0,0-1.54-14.22,61.36,61.36,0,0,0-60.15-47.86c-25.47-.09-50.94,0-76.4,0s-51.14-.11-76.71,0A61.44,61.44,0,0,0,3.59,74.87q-.21,45.09,0,90.18A61.24,61.24,0,0,0,63.7,226.17c11.92.24,23.84.15,35.76,0a9.22,9.22,0,0,1,8.26,4.1c8.76,11.76,17.68,23.4,26.55,35.08,4.77,6.27,10,6.26,14.85,0,9-11.81,18.09-23.61,27-35.49a8.27,8.27,0,0,1,7.27-3.58c11.1.08,22.21,0,33.31,0a70.58,70.58,0,0,0,8.85-.37c31.7-4.16,54.25-29.74,54.34-61.72Q280.05,119.86,279.87,75.54Zm-15.6,89c-.29,26.66-20.42,46.09-47.15,46.17-11.41,0-22.82.1-34.23,0-8.07-.09-14.31,3.09-19.11,9.52-6.77,9.05-13.66,18-20.5,27-.42.55-.89,1.06-1.6,1.91-7.23-9.5-14.35-18.54-21.1-27.85-5.35-7.39-12.2-10.81-21.36-10.64-12.72.23-25.52.68-38.16-.38-24.2-2-41.53-20.93-41.81-45.26q-.53-45.09,0-90.17c.32-26.09,20.26-45.56,46.33-45.62q76.1-.2,152.18,0c26.38.06,46.24,19.62,46.51,46.09Q264.72,119.9,264.27,164.52Z" style="fill:#565656"/><path d="M141.8,103.66a16.26,16.26,0,1,0,.06,32.52A16.47,16.47,0,0,0,158.08,120,16.25,16.25,0,0,0,141.8,103.66Z" style="fill:#565656"/><path d="M196.25,103.66a16.23,16.23,0,0,0-16.54,16.06,16.27,16.27,0,1,0,32.54.17A16.1,16.1,0,0,0,196.25,103.66Z" style="fill:#565656"/><path d="M87.62,103.66a16.26,16.26,0,1,0-.09,32.52,16.42,16.42,0,0,0,16.27-16.1A16.25,16.25,0,0,0,87.62,103.66Z" style="fill:#565656"/></svg>