<svg id="Calque_1" data-name="Calque 1" xmlns="http://www.w3.org/2000/svg" viewBox="0 0 283.46 283.46"><path d="M257.25,109.27c-2-15.75-14.38-26.44-30.27-27-6.81-.23-13.64,0-21,0,0-1.7.05-2.89,0-4.07-.3-6,0-12.13-1-18-4.84-28.37-29.73-50.67-57.51-52.64C114.85,5.2,88.51,25.88,80.3,53.05c-2.6,8.62-2.81,17.42-2.57,26.28.06,2.24-.6,3-2.88,2.92-6.23-.12-12.47-.19-18.69.06a31.17,31.17,0,0,0-30,34.73C28.37,136.71,31,156.33,33.47,176c2.92,23.33,6,46.64,8.72,70C44.31,264.36,57,276.09,75.46,276.1h74.2c20.12,0,40.23.09,60.34,0,15.5-.09,28.52-11,30.77-26.2,2.51-17,4.44-34.07,6.6-51.12,3-23.53,6-47.05,8.8-70.6C256.92,121.88,258,115.42,257.25,109.27ZM114.42,35.77A44,44,0,0,1,165,32.93c19.13,12,23.26,29.68,21.27,49.08H97.48C95.29,65.17,98.35,48.33,114.42,35.77Zm123.83,80.12c-1.76,15-3.73,29.91-5.61,44.86q-4.08,32.59-8.17,65.2c-.83,6.68-1.59,13.37-2.5,20a12.06,12.06,0,0,1-12.17,10.78q-68,.06-136,0a12,12,0,0,1-12.12-10.82c-3.1-24.52-6.11-49.05-9.17-73.58-2.3-18.44-4.54-36.89-7-55.32-1.24-9.46,3.7-15.48,13.19-15.53,6.13,0,12.25,0,18.92,0,0,6.41,0,12.42,0,18.43,0,1.71-.06,3.43.06,5.13a9.68,9.68,0,0,0,9.46,9.13,9.45,9.45,0,0,0,9.57-8.64c.36-5.5.17-11,.21-16.58,0-2.31,0-4.61,0-7.2H186.5c0,1,.13,2,.13,3.12,0,6.43-.07,12.87,0,19.3a9.7,9.7,0,0,0,6.93,9.54A8.91,8.91,0,0,0,204,130.19a14.32,14.32,0,0,0,1.91-6.76c.23-7.12.08-14.25.08-21.92,2,0,3.72,0,5.48,0,4.62,0,9.25-.05,13.87,0C234,101.61,239.26,107.3,238.25,115.89Z" style="fill:#565656"/></svg>