<?xml version="1.0" encoding="utf-8"?>
<!-- Generator: Adobe Illustrator 25.4.1, SVG Export Plug-In . SVG Version: 6.00 Build 0)  -->
<!DOCTYPE svg PUBLIC "-//W3C//DTD SVG 1.1//EN" "http://www.w3.org/Graphics/SVG/1.1/DTD/svg11.dtd" [
	<!ENTITY ns_extend "http://ns.adobe.com/Extensibility/1.0/">
	<!ENTITY ns_ai "http://ns.adobe.com/AdobeIllustrator/10.0/">
	<!ENTITY ns_graphs "http://ns.adobe.com/Graphs/1.0/">
	<!ENTITY ns_vars "http://ns.adobe.com/Variables/1.0/">
	<!ENTITY ns_imrep "http://ns.adobe.com/ImageReplacement/1.0/">
	<!ENTITY ns_sfw "http://ns.adobe.com/SaveForWeb/1.0/">
	<!ENTITY ns_custom "http://ns.adobe.com/GenericCustomNamespace/1.0/">
	<!ENTITY ns_adobe_xpath "http://ns.adobe.com/XPath/1.0/">
]>
<svg version="1.1" id="Calque_1" xmlns:x="&ns_extend;" xmlns:i="&ns_ai;" xmlns:graph="&ns_graphs;"
	 xmlns="http://www.w3.org/2000/svg" xmlns:xlink="http://www.w3.org/1999/xlink" x="0px" y="0px" viewBox="0 0 283.5 283.5"
	 style="enable-background:new 0 0 283.5 283.5;" xml:space="preserve">
<style type="text/css">
	.st0{fill:#303030;}
</style>
<metadata>
	<sfw  xmlns="&ns_sfw;">
		<slices></slices>
		<sliceSourceBounds  bottomLeftOrigin="true" height="270" width="269.8" x="6.8" y="6.8"></sliceSourceBounds>
	</sfw>
</metadata>
<path class="st0" d="M276.5,132.7c-0.2-9-4.4-15.9-12-20.7c-4.7-2.8-10.2-4.1-15.7-3.5c-2.3,0.2-3.2-0.7-3.9-2.8
	c-0.7-2.7-1.7-5.4-3.1-7.8c-2.9-4.5-2.2-7.5,1.7-11.4c8.8-9,9.1-23.4,0.6-32.8c-4.6-5.1-9.5-10-14.7-14.7
	c-5.8-5.2-12.9-6.8-20.6-5.5c-6.3,1.1-11.1,4.5-15.3,9.2c-1.3,1.5-2.3,1.5-4,0.6c-2.9-1.5-5.9-2.7-8.9-3.9c-5.6-2.3-5.7-2.2-5.8-8.2
	C174.6,20,167,10.3,156.1,7.6c-0.8-0.2-1.6-0.5-2.4-0.8h-24.2c-1.4,0.4-2.8,0.8-4.2,1.3c-10,3.3-16.7,12.6-16.9,23.1
	c-0.2,6-0.2,6-5.8,8.3c-2.6,0.9-5.2,2-7.7,3.3c-2.7,1.7-4.4,1.1-6.3-1.2c-3.6-4.3-8.6-7.1-14.1-8.1c-7.8-1.4-14.9,0.3-20.8,5.6
	c-4.8,4.3-9.4,9-13.8,13.7c-9.2,9.8-9.3,24.5,0.1,34c3.6,3.6,4.3,6.3,1.7,10.5c-1.7,2.7-2.6,5.9-3.6,9c-0.5,1.7-1.3,2.1-3,2.1
	c-3.3,0.1-6.8,0-9.9,0.9c-9.5,2.6-15.4,9-17.8,18.5c-0.2,0.6-0.4,1.1-0.6,1.7v24.2c0.2,0.4,0.4,0.8,0.5,1.2
	c2.4,10.5,9.9,17.9,20.5,19.6c2.6,0.4,5.3,0.1,7.9,0.4c0.9,0.2,1.7,0.7,2.2,1.6c1.4,3.1,2.1,6.6,3.9,9.5c2.7,4.3,1.9,7-1.7,10.5
	c-9.4,9.4-9.3,24-0.3,33.8c4.4,4.8,9,9.4,13.8,13.7c6,5.4,13.1,7.1,21,5.8c6.4-1.1,11.2-4.7,15.4-9.4c0.7-1.1,2.2-1.4,3.3-0.6l0,0
	c3.2,1.6,6.5,3,9.9,4.3c5.1,2.1,5.1,2,5.2,7.6c0.2,12.5,8.5,22.8,20.9,24.3c8.3,1,16.6,1,24.9,0c10.4-1.2,17-7.9,19.8-17.9
	c0.9-3.2,0.6-6.8,1-10.2c0.1-0.8,0.6-2,1.1-2.2c5.2-2.2,10.5-4.3,16.5-6.6c1.4,1.8,2.9,3.4,4.5,5c9.2,8.3,23.2,8.4,32.5,0.3
	c5.2-4.7,10.2-9.7,14.9-14.9c5.1-5.8,6.7-12.8,5.4-20.4c-1.1-6.3-4.5-11.1-9.1-15.3c-1.4-1.2-1.7-2.2-0.8-4c1.5-2.9,2.8-5.9,3.9-8.9
	c2.3-5.7,2.2-5.7,8.5-5.9c11.9-0.3,22.1-8.8,23.6-20.7C276.9,147.1,276.6,139.8,276.5,132.7z M260.7,150.1c0.1,4.9-3.9,8.9-8.8,9
	c-0.1,0-0.2,0-0.3,0c-3.6,0.1-7.2,0-10.8,0c-4.7,0-7.4,2.1-8.6,6.6c-2.2,8-5.4,15.8-9.6,23c-2.4,4.1-1.9,7.3,1.5,10.7
	c2.4,2.5,5,4.9,7.4,7.5c3.9,4.1,3.9,9.2-0.1,13.4c-3.8,3.8-7.5,7.6-11.4,11.4c-4,3.9-9.1,3.9-13.1,0.1c-2.6-2.5-5.1-5.1-7.7-7.6
	c-3.3-3.2-6.5-3.7-10.5-1.4c-7.3,4.2-15.1,7.4-23.3,9.6c-4.3,1.2-6.3,3.9-6.4,8.5c-0.1,3.6,0,7.2,0,10.8c0.1,4.9-3.8,9-8.7,9.1
	c-0.2,0-0.3,0-0.5,0c-2.8,0-5.6,0-8.4,0h-7.1c-6.7,0-10.2-3.5-10.2-10.3c0-3.2,0-6.5,0-9.8c-0.1-4.5-2.1-7.2-6.4-8.4
	c-8.1-2.2-15.9-5.5-23.2-9.6c-4-2.3-7.2-1.8-10.5,1.5c-2.5,2.4-4.9,5-7.5,7.4c-4.1,4-9.3,4-13.3,0c-3.8-3.7-7.6-7.5-11.4-11.4
	c-4-4.1-4-9.2,0-13.3c2.5-2.6,5.1-5.1,7.6-7.7c3.1-3.2,3.6-6.4,1.3-10.3c-4.2-7.4-7.5-15.2-9.8-23.4c-1.1-4.1-4-6.2-8.3-6.2
	c-3.6,0-7.2,0-10.8,0c-5.5-0.1-9.2-3.8-9.3-9.3s-0.1-10.9,0-16.3s3.8-9.2,9.3-9.2c3.6,0,7.2,0,10.8,0c4.4-0.1,7.1-2.1,8.3-6.3
	c2.2-8.2,5.5-16.1,9.8-23.5c2.2-3.8,1.7-7.1-1.4-10.3c-2.5-2.6-5.1-5.1-7.6-7.7c-3.9-4-3.9-9.2,0-13.1s7.8-7.9,11.7-11.7
	c3.3-3.5,8.9-3.7,12.5-0.4c0.1,0.1,0.2,0.2,0.3,0.3c2.7,2.5,5.2,5.2,7.9,7.8c3.3,3.2,6.5,3.7,10.5,1.4c7.3-4.2,15.1-7.5,23.3-9.7
	c4.3-1.2,6.3-4,6.4-8.5c0-3.6,0-7.2,0-10.8c-0.1-4.9,3.7-9,8.6-9.1c0.2,0,0.4,0,0.5,0c5.5-0.1,11.1-0.1,16.6,0
	c5.3,0.1,9,3.8,9.1,9.2c0.1,3.6,0,7.2,0,10.8c0.1,4.5,2.1,7.3,6.4,8.5c8.1,2.2,15.9,5.5,23.2,9.7c4,2.3,7.2,1.8,10.5-1.4
	c2.5-2.5,4.9-5,7.5-7.4c4.1-4,9.2-4,13.3-0.1c3.9,3.8,7.8,7.7,11.5,11.5s3.8,9,0.1,13c-2.5,2.7-5.2,5.2-7.8,7.9
	c-3.1,3.2-3.6,6.4-1.4,10.3c4.2,7.4,7.5,15.3,9.7,23.5c1.1,4.2,4,6.2,8.3,6.3c3.7,0.1,7.4,0,11.1,0c4.9-0.1,8.9,3.8,9,8.7
	c0,0.1,0,0.2,0,0.3C260.8,138.9,260.8,144.5,260.7,150.1z"/>
<path class="st0" d="M141.7,83C109.3,83,83,109.2,83,141.6s26.2,58.7,58.6,58.7s58.7-26.2,58.7-58.6v-0.1
	C200.3,109.3,174.1,83,141.7,83C141.8,83,141.8,83,141.7,83z M141.7,184.5c-23.7,0-42.9-19.1-42.9-42.8s19.1-42.9,42.8-42.9
	s42.9,19.1,42.9,42.8l0,0c0.1,23.6-19.1,42.8-42.7,42.9C141.8,184.5,141.8,184.5,141.7,184.5L141.7,184.5z"/>
</svg>
