<?xml version="1.0" encoding="utf-8"?>
<!-- Generator: Adobe Illustrator 25.4.1, SVG Export Plug-In . SVG Version: 6.00 Build 0)  -->
<!DOCTYPE svg PUBLIC "-//W3C//DTD SVG 1.1//EN" "http://www.w3.org/Graphics/SVG/1.1/DTD/svg11.dtd" [
	<!ENTITY ns_extend "http://ns.adobe.com/Extensibility/1.0/">
	<!ENTITY ns_ai "http://ns.adobe.com/AdobeIllustrator/10.0/">
	<!ENTITY ns_graphs "http://ns.adobe.com/Graphs/1.0/">
	<!ENTITY ns_vars "http://ns.adobe.com/Variables/1.0/">
	<!ENTITY ns_imrep "http://ns.adobe.com/ImageReplacement/1.0/">
	<!ENTITY ns_sfw "http://ns.adobe.com/SaveForWeb/1.0/">
	<!ENTITY ns_custom "http://ns.adobe.com/GenericCustomNamespace/1.0/">
	<!ENTITY ns_adobe_xpath "http://ns.adobe.com/XPath/1.0/">
]>
<svg version="1.1" id="Calque_1" xmlns:x="&ns_extend;" xmlns:i="&ns_ai;" xmlns:graph="&ns_graphs;"
	 xmlns="http://www.w3.org/2000/svg" xmlns:xlink="http://www.w3.org/1999/xlink" x="0px" y="0px" viewBox="0 0 283.5 283.5"
	 style="enable-background:new 0 0 283.5 283.5;" xml:space="preserve">
<style type="text/css">
	.st0{fill:#1D70B7;}
</style>
<metadata>
	<sfw  xmlns="&ns_sfw;">
		<slices></slices>
		<sliceSourceBounds  bottomLeftOrigin="true" height="256.1" width="256" x="13.7" y="13.8"></sliceSourceBounds>
	</sfw>
</metadata>
<path class="st0" d="M269.7,132.6c0.1-5.2-4-9.6-9.3-9.7c-0.1,0-0.3,0-0.4,0c-4-0.1-7.9,0-11.9,0c-4.7-0.1-7.7-2.3-8.9-6.7
	c-2.4-8.8-5.9-17.3-10.5-25.3c-2.4-4.2-1.9-7.6,1.5-11.1c2.8-2.8,5.6-5.6,8.4-8.4c4-4.2,4-9.8-0.1-13.9S230.2,49.1,226,45
	c-4.4-4.3-9.9-4.2-14.3,0.1c-2.7,2.6-5.3,5.4-8,8c-3.6,3.5-7,4-11.3,1.5c-7.9-4.5-16.3-8-25-10.4c-4.7-1.3-6.9-4.2-6.9-9.1
	c-0.1-3.9,0-7.8,0-11.6c-0.1-5.8-4.1-9.8-9.8-9.9c-5.9-0.1-11.9-0.1-17.8,0c-5.3-0.2-9.7,4-9.8,9.2c0,0.2,0,0.4,0,0.6
	c-0.1,3.9,0,7.8,0,11.6c-0.1,4.9-2.2,7.8-6.9,9.1c-8.8,2.4-17.2,5.9-25.1,10.4c-4.3,2.5-7.8,2-11.3-1.5c-2.8-2.8-5.6-5.7-8.4-8.4
	c-3.6-3.8-9.6-3.9-13.4-0.3c-0.1,0.1-0.2,0.2-0.3,0.3c-4.2,4.1-8.4,8.4-12.5,12.6s-4.1,9.8,0,14.1c2.7,2.8,5.5,5.4,8.2,8.2
	c3.3,3.5,3.9,6.9,1.5,11.1c-4.5,7.9-8.1,16.4-10.5,25.3c-1.2,4.5-4.2,6.7-8.9,6.8c-3.9,0.1-7.7,0-11.6,0c-6,0.1-10,4-10,9.9
	s-0.1,11.7,0,17.6s4,9.9,10,10c3.9,0.1,7.7,0,11.6,0c4.7,0.1,7.8,2.3,9,6.7c2.4,8.8,5.9,17.3,10.5,25.3c2.4,4.2,1.9,7.6-1.5,11.1
	c-2.7,2.8-5.5,5.5-8.2,8.2c-4.3,4.4-4.3,9.9,0,14.3c4,4.1,8.1,8.2,12.2,12.2c4.4,4.3,9.9,4.3,14.4,0c2.7-2.6,5.3-5.4,8-8
	c3.6-3.5,7-4,11.3-1.6c7.9,4.5,16.3,8,25,10.4c4.7,1.3,6.9,4.2,6.9,9.1c0.1,3.5,0,7,0,10.5c0,7.3,3.8,11,10.9,11h7.6c3,0,6,0,9.1,0
	c5.3,0.1,9.7-4,9.9-9.3c0-0.2,0-0.3,0-0.5c0.1-3.9,0-7.7,0-11.6c0.1-4.9,2.2-7.9,6.9-9.1c8.7-2.4,17.1-5.9,25-10.4
	c4.3-2.5,7.7-2,11.3,1.5c2.8,2.7,5.4,5.5,8.2,8.2c4.3,4.1,9.8,4.1,14.1-0.1c4.1-4,8.2-8.1,12.2-12.2c4.3-4.4,4.4-9.9,0.1-14.3
	c-2.6-2.7-5.3-5.3-8-8c-3.6-3.7-4.1-7-1.6-11.5c4.4-7.8,7.9-16.1,10.3-24.7c1.4-4.8,4.2-7,9.3-7.1c3.9,0,7.7,0,11.6,0
	c5.3,0.1,9.6-4.1,9.7-9.3c0-0.1,0-0.2,0-0.3C269.8,144.7,269.8,138.7,269.7,132.6z M141.5,204.7c-34.8-0.1-63-28.4-62.9-63.2
	s28.4-63,63.2-62.9c34.8,0.1,62.9,28.3,62.9,63.1c0,34.8-28.1,63-62.9,63.1C141.7,204.7,141.6,204.7,141.5,204.7z"/>
<path class="st0" d="M187.7,141.6c0,25.4-20.6,46-46,46s-46-20.6-46-46c0-25.4,20.5-46,45.9-46C167,95.6,187.7,116.1,187.7,141.6
	C187.7,141.5,187.7,141.6,187.7,141.6z"/>
</svg>
