<svg id="Calque_1" data-name="Calque 1" xmlns="http://www.w3.org/2000/svg" viewBox="0 0 283.46 283.46"><path d="M272,105.26A38.8,38.8,0,0,0,261.9,78.48c-8.94-9.8-18.33-19.18-27.53-28.72-.12-.12-.36-.12-.54-.17l.45.68c-6.1,4.12-12.22,8.2-18.28,12.38a18.66,18.66,0,0,0-4.23,3.67,9.5,9.5,0,0,1-13,2.23,9.29,9.29,0,0,1-2.5-12.7,9.07,9.07,0,0,1,12.81-2.71c1.78,1.26,3,1.08,4.69.16,11.88-6.41,19.51-16.5,24.88-28.55a60.57,60.57,0,0,0,5.13-18l-9.19-1.17a64.81,64.81,0,0,1-13.72,29.81c-12.46-11.06-26.63-7.29-34.09.59-13,13.74-26.22,27.29-39.22,41a39.86,39.86,0,0,0-11.27,28.09q-.14,74.49,0,149c0,13.49,10.24,23.67,23.77,23.69q44,.09,88.07,0c13.71,0,23.88-10.17,23.89-23.87Q272.05,179.6,272,105.26Zm-85.33,25.8c8.79,0,16.39,8,16.38,17.26a17.21,17.21,0,0,1-34.42,0C168.67,138.68,176.65,131,186.64,131.06Zm-14.25,72.8L222.28,134l7.57,5.62C213.24,162.85,196.68,186,180,209.36Zm45.37,8.25a17.23,17.23,0,1,1,17.32-17.27A17.34,17.34,0,0,1,217.76,212.11Z" style="fill:#565656"/><path d="M126.87,105.94A51,51,0,0,1,141.64,69.5q5.37-5.6,10.78-11.15l17.67-18.26-.2-.54c-.65.12-1.32.21-1.95.38-5.82,1.63-11.61,3.33-17.44,4.89a42.47,42.47,0,0,0-26.85,20.57Q87.14,128.69,50.58,192c-7.73,13.4-4.19,26.66,9.2,34.42q33.14,19.19,66.29,38.33c.79.45,1.62.84,2.27,1.18-.5-4.23-1.41-8.35-1.41-12.48Q126.78,179.68,126.87,105.94Z" style="fill:#565656"/><path d="M125.82,43a7.93,7.93,0,0,0-2.64,1.9Q106.82,61.24,90.45,77.56,54.74,113.22,19,148.88c-9,9-10.3,22.23-2.24,31.46,6.25,7.16,13.62,13.33,20.06,19.52,1.71-3.83,3.26-8.37,5.62-12.45Q83.34,116.5,124.41,45.73C124.92,44.85,125.36,43.92,125.82,43Z" style="fill:#565656"/><path d="M218,187a7.8,7.8,0,0,0-8,7.84,7.86,7.86,0,0,0,15.72.07A7.85,7.85,0,0,0,218,187Z" style="fill:#565656"/><path d="M185.86,156.22a7.8,7.8,0,0,0,.14-15.6,7.8,7.8,0,1,0-.14,15.6Z" style="fill:#565656"/></svg>