<?xml version="1.0" encoding="utf-8"?>
<!-- Generator: Adobe Illustrator 25.4.1, SVG Export Plug-In . SVG Version: 6.00 Build 0)  -->
<!DOCTYPE svg PUBLIC "-//W3C//DTD SVG 1.1//EN" "http://www.w3.org/Graphics/SVG/1.1/DTD/svg11.dtd" [
	<!ENTITY ns_extend "http://ns.adobe.com/Extensibility/1.0/">
	<!ENTITY ns_ai "http://ns.adobe.com/AdobeIllustrator/10.0/">
	<!ENTITY ns_graphs "http://ns.adobe.com/Graphs/1.0/">
	<!ENTITY ns_vars "http://ns.adobe.com/Variables/1.0/">
	<!ENTITY ns_imrep "http://ns.adobe.com/ImageReplacement/1.0/">
	<!ENTITY ns_sfw "http://ns.adobe.com/SaveForWeb/1.0/">
	<!ENTITY ns_custom "http://ns.adobe.com/GenericCustomNamespace/1.0/">
	<!ENTITY ns_adobe_xpath "http://ns.adobe.com/XPath/1.0/">
]>
<svg version="1.1" id="Calque_1" xmlns:x="&ns_extend;" xmlns:i="&ns_ai;" xmlns:graph="&ns_graphs;"
	 xmlns="http://www.w3.org/2000/svg" xmlns:xlink="http://www.w3.org/1999/xlink" x="0px" y="0px" viewBox="0 0 283.5 283.5"
	 style="enable-background:new 0 0 283.5 283.5;" xml:space="preserve">
<style type="text/css">
	.st0{fill:#1D70B7;}
</style>
<metadata>
	<sfw  xmlns="&ns_sfw;">
		<slices></slices>
		<sliceSourceBounds  bottomLeftOrigin="true" height="269.3" width="190.5" x="46.4" y="7.1"></sliceSourceBounds>
	</sfw>
</metadata>
<path class="st0" d="M229.7,7.2h-65.6L52.2,7.1c-3.6,0-5.7,2.1-5.8,5.6c0,1.8,0,3.7,0,5.5c0,72.4,0,144.9,0,217.3
	c0,4.9,1,6.4,5.1,7.4L183.9,276c5.5,1.4,7.8-0.5,7.8-6.2c0-8.9,0-17.8,0-27.1h3.8c11.4,0,22.9,0,34.3,0c5.7,0,7.1-1.4,7.1-7V14.4
	C237,8.6,235.5,7.2,229.7,7.2z M76.4,126.2l87.8,22l-2.4,9.5l-87.7-22L76.4,126.2z M74.1,100.4c0.8-3.2,1.6-6.3,2.4-9.5l87.7,22
	l-2.3,9.5L74.1,100.4z M76.4,161.4l87.7,22c-0.8,3.3-1.6,6.2-2.4,9.5l-87.8-22C74.8,167.7,75.6,164.7,76.4,161.4z M226.9,232.6
	h-35.1V49.4c0-7-0.4-7.5-7.3-9.2c-29.5-7.3-58.9-14.7-88.4-22.1c-0.7-0.2-1.3-0.5-2.6-1h133.4L226.9,232.6z"/>
</svg>
