<svg id="Calque_1" data-name="Calque 1" xmlns="http://www.w3.org/2000/svg" viewBox="0 0 283.46 283.46"><path d="M259.7,109.24c-4.37-2-9.32-2.65-14.46-4,0-.16-.15-1-.32-1.93-1.3-6.5-2.07-13.16-4-19.45-8.35-27.08-25.21-47.38-50-61.13a102.32,102.32,0,0,0-33.67-11.33c-.83-.14-2-.43-2.33-1-2.22-4.47-6.09-6.77-10.54-8.4H139c-2.91,1.75-6.67,2.88-8.51,5.41a11,11,0,0,1-8.69,4.81,22.74,22.74,0,0,0-2.94.56A102.64,102.64,0,0,0,64.36,44.55,100.3,100.3,0,0,0,40.55,89.61c-1.26,5.37-2,10.85-3,16.42l-1.84.14a31.8,31.8,0,0,0-29.89,33,7.46,7.46,0,0,0,2.41,5.12A10.67,10.67,0,0,0,14.26,146q127.38.1,254.76.06a20.7,20.7,0,0,0,2.73-.08,6.53,6.53,0,0,0,5.92-6.41C278.31,126.82,271.25,114.43,259.7,109.24Zm-118-85.93c51.56.07,87.61,41.88,90.16,82.61H51.24C54.06,64.61,90.33,23.24,141.69,23.31Zm-122,109.43A17.69,17.69,0,0,1,31,120.49a20.08,20.08,0,0,1,6.92-1.21q103.89-.09,207.79,0c9.07,0,16.09,5.29,18,13.5Z" style="fill:#565656"/><path d="M146.72,256.76A162,162,0,0,1,127,228.34a300.53,300.53,0,0,0-42.2-59.15c-.64-.7-1.19-1.48-1.82-2.27,6.15-3.15,10.07-2.36,13.9,1.87,10.89,12,23.09,22.68,35.54,33.07a43,43,0,0,0,24.21,10.19c4.93.45,9.84.42,14.26-2.39,7.41-4.71,12.8-11.13,15.32-19.53,1.31-4.39,1.53-9.09,2.27-13.65a10.63,10.63,0,0,1,9.07-9c-.33,4.3-.52,8.52-1,12.72-.52,4.42-1.64,8.78-1.93,13.21-.25,3.94-.48,8.15.6,11.86,2.59,8.88,3.85,17.68,2.15,26.88a5.15,5.15,0,0,0,4.46,6.35c3,.39,5.32-1.48,6-5a53.84,53.84,0,0,0-1.49-27.73,28.24,28.24,0,0,1-1-12.92c1.09-7.91,2.2-15.85,2.75-23.81.51-7.41-5.47-13.47-12.26-12.35a24.15,24.15,0,0,0-9.77,4.38c-6.4,4.59-8.55,11.39-8.76,19.06a23.5,23.5,0,0,1-8.94,18c-1.85,1.54-4.45,3.18-6.65,3.1a68.38,68.38,0,0,1-13.85-2.3c-3.15-.77-5.33-2.83-6.74-6.1-4.55-10.6-9.46-21.05-14.24-31.55-5.18-11.38-17.32-14.25-27.12-6.51a4.87,4.87,0,0,1-3.08.6c-3.4-.26-6.81-1.08-10.18-.92A21,21,0,0,0,79,156.71c-7.56,3.48-9.07,12.1-3.12,18.63a314.68,314.68,0,0,1,42.78,60.09c4.48,8.07,10.18,15.47,15.46,23.09a70.16,70.16,0,0,0,5.78,6.9c2.33,2.56,5.45,2.92,7.77,1.05s2.58-5.13.42-8C147.69,257.85,147.19,257.31,146.72,256.76Zm-29.78-91.32a119.68,119.68,0,0,1,5.67,13.86l-15.67-16.17C110.85,160,114.78,160.81,116.94,165.44Z" style="fill:#565656"/><path d="M219.48,253.93c-3.49-6.1-9.24-9.05-16.55-9.38-.65.08-1.57.12-2.45.31-11.39,2.47-22.18,6.56-31.73,13.26-5.92,4.16-11.27,9.14-16.78,13.87-1.77,1.52-2.7,3.8-1.47,5.89.87,1.47,2.67,3.2,4.15,3.3a7.91,7.91,0,0,0,5.43-2.25A85.56,85.56,0,0,1,199,256.29c6.14-1.67,9.84-.18,12.66,5.56,2.69,5.46,5.27,11,8,16.4,1.57,3.1,4.46,4,7.31,2.66a5.28,5.28,0,0,0,2.35-7.23C226.18,267,223.13,260.31,219.48,253.93Z" style="fill:#565656"/><path d="M114.12,39.58a96,96,0,0,0-38.05,35.8,152.88,152.88,0,0,0-8,16.36,4.7,4.7,0,0,0,2.58,6.55c2.45,1,4.88-.09,6.25-2.82.48-1,.9-2,1.31-3a83.42,83.42,0,0,1,25.2-34c4.8-3.84,10.17-7,15.33-10.34,1.83-1.19,3.45-2.4,3.38-4.26C122.05,39.23,118.15,37.44,114.12,39.58Z" style="fill:#565656"/></svg>