<?xml version="1.0" encoding="utf-8"?>
<!-- Generator: Adobe Illustrator 25.4.1, SVG Export Plug-In . SVG Version: 6.00 Build 0)  -->
<!DOCTYPE svg PUBLIC "-//W3C//DTD SVG 1.1//EN" "http://www.w3.org/Graphics/SVG/1.1/DTD/svg11.dtd" [
	<!ENTITY ns_extend "http://ns.adobe.com/Extensibility/1.0/">
	<!ENTITY ns_ai "http://ns.adobe.com/AdobeIllustrator/10.0/">
	<!ENTITY ns_graphs "http://ns.adobe.com/Graphs/1.0/">
	<!ENTITY ns_vars "http://ns.adobe.com/Variables/1.0/">
	<!ENTITY ns_imrep "http://ns.adobe.com/ImageReplacement/1.0/">
	<!ENTITY ns_sfw "http://ns.adobe.com/SaveForWeb/1.0/">
	<!ENTITY ns_custom "http://ns.adobe.com/GenericCustomNamespace/1.0/">
	<!ENTITY ns_adobe_xpath "http://ns.adobe.com/XPath/1.0/">
]>
<svg version="1.1" id="Calque_1" xmlns:x="&ns_extend;" xmlns:i="&ns_ai;" xmlns:graph="&ns_graphs;"
	 xmlns="http://www.w3.org/2000/svg" xmlns:xlink="http://www.w3.org/1999/xlink" x="0px" y="0px" viewBox="0 0 283.5 283.5"
	 style="enable-background:new 0 0 283.5 283.5;" xml:space="preserve">
<style type="text/css">
	.st0{fill:#303030;}
</style>
<metadata>
	<sfw  xmlns="&ns_sfw;">
		<slices></slices>
		<sliceSourceBounds  bottomLeftOrigin="true" height="269.3" width="190.4" x="46.5" y="7.1"></sliceSourceBounds>
	</sfw>
</metadata>
<path class="st0" d="M229.7,7.2h-65.6c-37.3,0-74.6,0-111.8-0.1c-3.6,0-5.7,2.1-5.8,5.6c0,1.8,0,3.7,0,5.5v217.3c0,5,1,6.4,5.1,7.4
	L183.9,276c5.5,1.4,7.8-0.5,7.8-6.2c0-8.9,0-17.8,0-27.1h3.8c11.4,0,22.9,0,34.3,0c5.7,0,7.1-1.4,7.1-7c0-73.8,0-147.6,0-221.3
	C237,8.6,235.5,7.2,229.7,7.2z M181.9,216.4c0,15.1,0,30.2,0,45.4v3.6l-25.6-6.4c-32.4-8.1-64.9-16.2-97.3-24.3
	c-2.1-0.5-2.8-1.2-2.8-3.4c0.1-70,0.1-139.9,0-209.9c0-0.8,0.1-1.6,0.1-2.8c12.7,3.2,25,6.2,37.3,9.3c28.4,7.1,56.8,14.3,85.2,21.3
	c2.5,0.6,2.9,1.6,2.9,3.9C181.9,107.5,181.9,161.9,181.9,216.4z M226.9,232.6h-35.1V49.4c0-7-0.4-7.5-7.3-9.2
	c-29.5-7.3-58.9-14.7-88.4-22.1c-0.7-0.2-1.3-0.5-2.6-1h133.4L226.9,232.6L226.9,232.6z"/>
<path class="st0" d="M164.1,112.8l-87.7-22c-0.8,3.2-1.6,6.3-2.4,9.5l87.8,22C162.6,119,163.4,116,164.1,112.8z"/>
<path class="st0" d="M74.1,135.6l87.7,22c0.8-3.2,1.6-6.2,2.4-9.5l-87.8-22L74.1,135.6z"/>
<path class="st0" d="M74,170.9l87.7,22c0.8-3.3,1.6-6.2,2.4-9.5l-87.7-22C75.6,164.6,74.8,167.7,74,170.9z"/>
</svg>
