<svg id="Calque_1" data-name="Calque 1" xmlns="http://www.w3.org/2000/svg" viewBox="0 0 283.46 283.46"><path d="M88,116.05q-29.85,0-59.68,0c-9.64,0-15.7-6.07-15.7-15.75q0-35.23,0-70.47c0-9.65,6.06-15.72,15.73-15.72q59.67,0,119.35,0c9.65,0,15.68,6.07,15.69,15.75q0,35.24,0,70.47c0,9.67-6.06,15.71-15.72,15.72Q117.81,116.07,88,116.05Zm67.22-79.67a24,24,0,0,0,.2-5.62c0-6.41-2.27-8.73-8.61-8.73H29.23a18.37,18.37,0,0,0-3.06.2,6.17,6.17,0,0,0-5.45,5.91c-.15,2.73,0,5.47,0,8.21l0,24.07c-.05.85-.16,1.7-.16,2.55q0,18.24,0,36.5c0,6.41,2.24,8.64,8.65,8.64H146.74c6.38,0,8.66-2.28,8.66-8.67q0-18.14,0-36.25c0-.93-.15-1.86-.23-2.79Q155.17,48.4,155.19,36.38Z" style="fill:#565656"/><path d="M195.32,269.37H136.41c-10.41,0-16.3-5.84-16.3-16.17,0-23.23.19-46.47-.1-69.7-.12-9.33,6.87-16.24,16.22-16.18,39.53.25,79.05.1,118.58.11,10.16,0,16.07,5.94,16.07,16.14v69.71c0,10.15-5.95,16.09-16.14,16.09Zm.08-94H136.24c-5.71,0-8.17,2.42-8.17,8.13q0,34.85,0,69.7c0,5.86,2.43,8.25,8.33,8.25H254.47c6,0,8.38-2.35,8.38-8.41q0-34.59,0-69.18c0-6.24-2.27-8.49-8.54-8.49Z" style="fill:#565656"/><path d="M206.37,56.54H218.1c15.4,0,25.42,10,25.42,25.4q0,26,0,51.94a11.28,11.28,0,0,1-.22,2.79,3.93,3.93,0,0,1-7.64,0,11.9,11.9,0,0,1-.2-2.8q0-26.1,0-52.19c0-10.71-6.41-17.1-17.08-17.12H205.44c2,1.87,3.46,3.2,4.85,4.62,2,2.09,2.21,4.43.52,6.13s-4.07,1.56-6.11-.45c-3.72-3.68-7.43-7.37-11.08-11.1-2.18-2.21-2.16-4.23,0-6.48q5.49-5.61,11.09-11.09c2.09-2.05,4.39-2.11,6.1-.31s1.44,3.92-.46,5.94c-.7.75-1.43,1.49-2.18,2.18s-1.43,1.22-2.14,1.83Z" style="fill:#565656"/><path d="M77.44,215.28c-1.5-1.39-3.06-2.71-4.48-4.17-1.88-1.94-1.93-4.3-.25-5.93s3.93-1.59,5.92.35q5.69,5.57,11.27,11.26c2.09,2.13,2.1,4.2,0,6.32-3.71,3.8-7.48,7.54-11.27,11.26-2,1.93-4.24,2-5.92.42s-1.66-4,.36-6.12c1.37-1.41,2.83-2.74,4.28-4.13-.8-.92-1.7-.48-2.48-.51-4.79-.18-9.6.38-14.37-.34-12-1.83-20.41-11.19-20.53-23.29-.19-18.25-.07-36.5,0-54.75,0-3,1.7-4.93,4.12-4.86s3.94,2,3.94,5.05c0,18.08,0,36.16,0,54.24,0,8.23,6,15.15,13.68,15.68,5.1.34,10.24.06,15.37.06Z" style="fill:#565656"/><path d="M155.17,60.41l-134.39,0q0-12,0-24.07l32.65,0,101.78,0Q155.18,48.4,155.17,60.41Z" style="fill:#7cc459"/><path d="M58.05,82.05c-7.54,0-15.08,0-22.62,0-3.14,0-4.88-1.47-4.87-4s1.68-4,4.67-4Q58.11,74,81,74.06c2.89,0,4.67,1.68,4.65,4s-1.81,3.94-4.71,4C73.3,82.07,65.67,82.05,58.05,82.05Z" style="fill:#565656"/><path d="M46.55,98.58c-3.86,0-7.72,0-11.58,0-2.9,0-4.58-1.58-4.52-4.06S32.1,90.7,35,90.69q11.7-.06,23.41,0c2.86,0,4.67,1.68,4.58,4s-1.82,3.8-4.56,3.83C54.43,98.61,50.49,98.58,46.55,98.58Z" style="fill:#565656"/><path d="M220.34,189q13.6,0,27.22,0c3.21,0,4.89,1.4,4.88,4s-1.72,3.91-4.92,3.91h-54.7c-3.2,0-4.88-1.4-4.87-4s1.69-3.91,4.91-3.91Q206.6,189,220.34,189Z" style="fill:#565656"/><path d="M154.85,247.81c-3.85,0-7.71,0-11.57,0-2.94,0-4.66-1.53-4.65-4s1.74-3.9,4.7-3.91q11.56,0,23.14,0c2.95,0,4.65,1.5,4.64,4s-1.71,3.9-4.68,3.93C162.57,247.83,158.71,247.81,154.85,247.81Z" style="fill:#565656"/><path d="M167.19,225.51c-4.36.05-6.42-1.3-6.34-4.09s2.06-3.93,6.28-3.93a19.82,19.82,0,0,1,2.56,0,4,4,0,0,1,.05,8A19.72,19.72,0,0,1,167.19,225.51Z" style="fill:#565656"/><path d="M144.78,225.54c-.78,0-1.55.06-2.32,0a3.94,3.94,0,0,1-3.92-3.94,3.86,3.86,0,0,1,3.79-4.06,31,31,0,0,1,4.62,0c2.55.16,4.11,1.78,4.07,4.06s-1.63,3.79-4.19,4c-.68.05-1.37,0-2.05,0Z" style="fill:#565656"/><path d="M189.65,225.5a15.6,15.6,0,0,1-2.82,0c-2.2-.41-3.54-1.7-3.49-4.06a3.72,3.72,0,0,1,3.69-3.86,26.51,26.51,0,0,1,4.88,0,3.87,3.87,0,0,1,3.89,4,4,4,0,0,1-3.84,4,22.24,22.24,0,0,1-2.31,0Z" style="fill:#565656"/><path d="M212,225.56c-4.33,0-6.41-1.37-6.32-4.16s2.07-3.91,6.31-3.91,6.22,1.22,6.32,3.89S216.28,225.56,212,225.56Z" style="fill:#565656"/></svg>