<?xml version="1.0" encoding="utf-8"?>
<!-- Generator: Adobe Illustrator 25.4.1, SVG Export Plug-In . SVG Version: 6.00 Build 0)  -->
<!DOCTYPE svg PUBLIC "-//W3C//DTD SVG 1.1//EN" "http://www.w3.org/Graphics/SVG/1.1/DTD/svg11.dtd" [
	<!ENTITY ns_extend "http://ns.adobe.com/Extensibility/1.0/">
	<!ENTITY ns_ai "http://ns.adobe.com/AdobeIllustrator/10.0/">
	<!ENTITY ns_graphs "http://ns.adobe.com/Graphs/1.0/">
	<!ENTITY ns_vars "http://ns.adobe.com/Variables/1.0/">
	<!ENTITY ns_imrep "http://ns.adobe.com/ImageReplacement/1.0/">
	<!ENTITY ns_sfw "http://ns.adobe.com/SaveForWeb/1.0/">
	<!ENTITY ns_custom "http://ns.adobe.com/GenericCustomNamespace/1.0/">
	<!ENTITY ns_adobe_xpath "http://ns.adobe.com/XPath/1.0/">
]>
<svg version="1.1" id="Calque_1" xmlns:x="&ns_extend;" xmlns:i="&ns_ai;" xmlns:graph="&ns_graphs;"
	 xmlns="http://www.w3.org/2000/svg" xmlns:xlink="http://www.w3.org/1999/xlink" x="0px" y="0px" viewBox="0 0 283.5 283.5"
	 style="enable-background:new 0 0 283.5 283.5;" xml:space="preserve">
<style type="text/css">
	.st0{fill:#303030;}
</style>
<metadata>
	<sfw  xmlns="&ns_sfw;">
		<slices></slices>
		<sliceSourceBounds  bottomLeftOrigin="true" height="270.5" width="204.1" x="39.7" y="6.5"></sliceSourceBounds>
	</sfw>
</metadata>
<path class="st0" d="M141.9,144.2L141.9,144.2c37.9-0.1,68.7-30.7,68.9-68.7c0-38.1-30.8-68.9-68.9-69l0,0
	c-38,0-68.8,30.8-68.9,68.8C73,113.4,103.9,144.2,141.9,144.2L141.9,144.2L141.9,144.2z M91.4,75.3c0.1-27.9,22.6-50.5,50.4-50.6
	h0.2c27.9,0.1,50.5,22.8,50.5,50.7S169.9,125.9,142,126l0,0c-27.9,0.1-50.6-22.5-50.6-50.4C91.4,75.5,91.4,75.4,91.4,75.3z"/>
<path class="st0" d="M191,185.2c-37.3-19.7-75.1-17.2-109.3,7.2c-23.3,16.7-37.1,39.9-40.9,69c0,0,0,0,0,0.1v15.4h202.9l0.1-2.4
	C244.4,246.5,230.9,206.3,191,185.2z M59.2,261.4c1.5-9.7,4.7-19.1,9.5-27.7c6.9-12.4,16.8-22.8,28.8-30.3
	c12-7.6,25.7-11.9,39.8-12.6c19.9-1,37.9,4.3,53.4,15.6c18.9,13.8,30.2,32.2,33.9,54.9L59.2,261.4z"/>
<path class="st0" d="M58,276.9L58,276.9L39.7,277l0.1-2.6c0.1-4.4,0.5-8.7,1-12.9v15.4H58z"/>
<path class="st0" d="M40.8,261.4C40.8,261.5,40.8,261.5,40.8,261.4L40.8,261.4z"/>
</svg>
